<?xml version="1.0" standalone="no"?>
<!DOCTYPE svg PUBLIC "-//W3C//DTD SVG 20010904//EN"
 "http://www.w3.org/TR/2001/REC-SVG-20010904/DTD/svg10.dtd">
<svg version="1.0" xmlns="http://www.w3.org/2000/svg"
 width="600.000000pt" height="600.000000pt" viewBox="0 0 600.000000 600.000000"
 preserveAspectRatio="xMidYMid meet">
<metadata>
Created by potrace 1.16, written by Peter Selinger 2001-2019
</metadata>
<g transform="translate(0.000000,600.000000) scale(0.100000,-0.100000)"
fill="#000000" stroke="none">
<path d="M2681 5520 c-34 -56 -61 -103 -61 -106 0 -2 -12 -23 -27 -47 -14 -23
-40 -68 -56 -101 -16 -33 -37 -60 -48 -63 -15 -4 -16 -9 -9 -24 8 -15 7 -17
-5 -13 -18 7 -21 -12 -2 -19 8 -4 9 -8 2 -14 -6 -4 -17 -28 -25 -52 -14 -43
-38 -77 -47 -67 -3 3 5 19 17 36 12 16 19 36 17 43 -4 9 -6 9 -6 0 -1 -7 -5
-13 -10 -13 -5 0 -11 6 -14 13 -2 6 -3 4 -1 -7 3 -22 -21 -50 -36 -41 -6 4
-11 -8 -12 -27 -4 -93 -3 -120 4 -124 4 -3 8 -10 8 -15 0 -6 -5 -7 -10 -4 -7
4 -8 -3 -4 -21 5 -19 4 -25 -5 -20 -6 4 -11 21 -11 37 0 17 -4 28 -9 25 -5 -4
-12 0 -14 6 -4 10 -6 10 -6 0 -1 -7 4 -22 9 -32 8 -15 6 -21 -7 -29 -10 -6
-13 -11 -7 -11 12 0 34 -43 34 -66 0 -9 -5 -12 -11 -8 -8 4 -9 0 -4 -15 4 -13
2 -21 -5 -21 -7 0 -9 -8 -5 -21 5 -15 4 -19 -5 -14 -6 4 -10 23 -8 43 2 19 -2
37 -7 39 -6 2 -10 -18 -10 -49 0 -29 -4 -63 -8 -75 -7 -20 -5 -23 15 -23 21 0
27 10 51 93 76 249 218 547 382 802 28 44 54 86 59 93 5 8 0 12 -18 12 -21 0
-34 -16 -85 -100z m-275 -532 c5 -7 3 -8 -6 -3 -9 5 -10 2 -5 -14 3 -11 2 -27
-2 -35 -6 -10 -9 -2 -9 24 -1 39 8 51 22 28z m-104 -350 c-7 -7 -12 -8 -12 -2
0 14 12 26 19 19 2 -3 -1 -11 -7 -17z"/>
<path d="M1937 5402 c-6 -33 1 -43 14 -19 6 9 14 15 20 12 5 -4 9 -2 9 2 0 5
-9 14 -19 20 -17 10 -20 9 -24 -15z"/>
<path d="M2026 5394 c-4 -9 -4 -19 -1 -22 3 -3 5 1 5 9 0 11 2 11 10 -1 8 -12
10 -11 10 8 0 26 -15 29 -24 6z"/>
<path d="M1984 5373 c-3 -10 -10 -26 -15 -35 -5 -11 -5 -26 1 -40 8 -20 9 -20
8 -3 -2 11 0 25 3 30 10 16 20 65 14 65 -3 0 -8 -8 -11 -17z"/>
<path d="M1930 5350 c0 -5 5 -10 11 -10 5 0 7 5 4 10 -3 6 -8 10 -11 10 -2 0
-4 -4 -4 -10z"/>
<path d="M3589 5348 c-1 -7 -1 -17 0 -22 4 -18 -9 -56 -19 -56 -6 0 -15 11
-21 24 -17 37 -97 63 -114 36 -8 -14 21 -79 40 -86 21 -8 67 4 60 16 -4 6 -16
8 -29 4 -14 -3 -27 1 -36 11 -11 13 -11 19 3 32 14 15 19 14 51 -13 19 -16 35
-35 35 -41 1 -7 9 -13 18 -13 9 0 24 -7 34 -16 19 -17 39 -12 39 11 0 7 -12
15 -27 17 -37 4 -39 23 -8 53 17 14 25 31 21 40 -7 18 -45 20 -47 3z"/>
<path d="M2000 5334 c0 -5 7 -18 15 -28 12 -16 15 -17 15 -4 0 8 -7 21 -15 28
-8 7 -15 9 -15 4z"/>
<path d="M3751 5321 c-8 -5 -20 -7 -28 -4 -10 4 -13 -11 -13 -71 0 -44 4 -76
10 -76 6 0 10 12 10 26 0 21 3 24 21 19 47 -15 80 63 41 98 -21 20 -22 20 -41
8z m34 -51 c0 -29 -4 -36 -22 -38 -17 -3 -24 3 -29 22 -7 30 11 58 35 54 11
-2 16 -14 16 -38z"/>
<path d="M3852 5314 c-24 -17 -30 -62 -10 -82 7 -7 26 -12 43 -11 28 1 28 2 6
8 -51 14 -53 72 -2 79 11 2 21 8 21 13 0 14 -33 11 -58 -7z"/>
<path d="M3940 5320 c-11 -7 -7 -10 18 -10 17 0 32 -4 32 -10 0 -5 -6 -10 -13
-10 -26 0 -55 -29 -50 -50 4 -16 13 -19 44 -18 37 1 39 3 39 35 0 62 -30 89
-70 63z m50 -59 c0 -5 -7 -14 -16 -22 -13 -10 -17 -10 -24 1 -5 8 -6 18 -4 22
7 11 44 10 44 -1z"/>
<path d="M3670 5265 c0 -30 5 -55 10 -55 6 0 10 25 10 55 0 30 -4 55 -10 55
-5 0 -10 -25 -10 -55z"/>
<path d="M2037 5266 c-4 -10 -5 -21 -2 -24 9 -9 17 6 13 25 -3 17 -4 17 -11
-1z"/>
<path d="M1971 5254 c0 -11 3 -14 6 -6 3 7 2 16 -1 19 -3 4 -6 -2 -5 -13z"/>
<path d="M3520 5222 c-29 -23 -21 -49 16 -58 17 -4 29 -2 35 7 12 19 11 49 -1
49 -5 0 -10 -9 -10 -20 0 -11 -6 -20 -14 -20 -24 0 -30 22 -11 36 10 8 16 16
13 19 -3 3 -16 -3 -28 -13z"/>
<path d="M1960 5171 c0 -5 5 -13 10 -16 6 -3 10 -2 10 4 0 5 -4 13 -10 16 -5
3 -10 2 -10 -4z"/>
<path d="M1999 5077 c-3 -33 -1 -43 9 -40 9 4 10 16 6 42 -9 49 -11 49 -15 -2z"/>
<path d="M2314 4970 c3 -8 9 -23 12 -32 4 -10 10 -18 15 -18 15 0 10 16 -12
41 -12 13 -19 17 -15 9z"/>
<path d="M2316 4787 c3 -10 9 -15 12 -12 3 3 0 11 -7 18 -10 9 -11 8 -5 -6z"/>
<path d="M1900 4777 c0 -9 32 -67 40 -72 18 -11 18 25 -1 49 -17 22 -39 34
-39 23z"/>
<path d="M2236 4705 c-9 -26 -7 -32 5 -12 6 10 9 21 6 23 -2 3 -7 -2 -11 -11z"/>
<path d="M2208 4642 c-15 -3 -18 -14 -16 -75 l2 -72 3 59 c3 41 9 63 21 72 20
14 15 22 -10 16z"/>
<path d="M2245 4639 c-4 -6 -5 -12 -2 -15 2 -3 7 2 10 11 7 17 1 20 -8 4z"/>
<path d="M2159 4608 c-5 -62 -4 -100 3 -104 4 -3 8 22 8 55 0 34 -2 61 -5 61
-3 0 -5 -6 -6 -12z"/>
<path d="M2256 4599 c3 -6 1 -15 -6 -19 -7 -4 -9 -13 -6 -19 10 -16 26 -14 20
3 -3 8 -1 17 5 21 7 3 11 -3 12 -17 1 -18 2 -19 6 -5 3 10 -1 24 -7 32 -14 17
-34 20 -24 4z"/>
<path d="M2050 4521 c0 -6 4 -13 10 -16 6 -3 7 1 4 9 -7 18 -14 21 -14 7z"/>
<path d="M2224 4504 c3 -9 6 -19 6 -24 0 -4 7 -11 16 -14 8 -3 12 -2 9 4 -3 6
-1 10 4 10 6 0 11 9 11 20 0 25 -17 26 -23 3 -4 -17 -5 -17 -6 0 0 9 -6 17
-12 17 -6 0 -8 -7 -5 -16z"/>
<path d="M1930 4486 c0 -8 5 -18 10 -21 6 -3 10 3 10 14 0 12 -4 21 -10 21 -5
0 -10 -6 -10 -14z"/>
<path d="M2077 4475 c-4 -8 -2 -17 3 -20 6 -4 10 3 10 14 0 25 -6 27 -13 6z"/>
<path d="M2156 4448 c9 -59 14 -60 14 -5 0 26 -5 47 -10 47 -6 0 -8 -16 -4
-42z"/>
<path d="M2191 4474 c0 -11 3 -14 6 -6 3 7 2 16 -1 19 -3 4 -6 -2 -5 -13z"/>
<path d="M3767 4463 c-11 -11 -8 -213 3 -213 6 0 10 43 10 110 0 110 -1 116
-13 103z"/>
<path d="M2192 4425 c0 -16 2 -22 5 -12 2 9 2 23 0 30 -3 6 -5 -1 -5 -18z"/>
<path d="M2237 4443 c-4 -3 -7 -19 -7 -34 0 -15 -4 -31 -10 -34 -5 -3 -10 -18
-10 -33 0 -39 15 -15 28 47 12 53 12 67 -1 54z"/>
<path d="M2640 4329 c0 -62 3 -109 7 -105 4 4 8 21 8 39 2 35 13 67 24 67 4 0
20 -25 36 -55 17 -30 33 -55 38 -55 11 0 10 4 -28 70 l-35 62 31 39 c17 22 29
43 25 46 -3 4 -7 4 -9 2 -2 -2 -19 -25 -37 -51 -18 -27 -36 -48 -40 -48 -3 0
-6 21 -5 46 0 25 -3 48 -7 50 -4 3 -8 -45 -8 -107z"/>
<path d="M2890 4411 c0 -11 -6 -22 -12 -25 -10 -5 -10 -7 0 -12 8 -4 12 -29
12 -74 0 -50 4 -69 15 -73 8 -4 17 -2 20 3 3 4 1 10 -5 12 -15 5 -15 115 0
133 8 10 9 15 1 15 -6 0 -11 9 -11 20 0 11 -4 20 -10 20 -5 0 -10 -9 -10 -19z"/>
<path d="M3650 4390 c-25 -25 -28 -111 -4 -134 38 -39 84 -1 84 69 0 44 -22
85 -46 85 -8 0 -23 -9 -34 -20z m58 -44 c5 -61 -5 -88 -31 -84 -18 2 -23 11
-25 42 -5 61 5 88 31 84 18 -2 23 -11 25 -42z"/>
<path d="M3824 4385 c-21 -32 -14 -113 11 -131 27 -20 64 1 65 36 0 9 -5 7
-16 -8 -26 -38 -54 -23 -54 28 0 14 9 20 38 22 33 3 37 6 34 28 -8 54 -50 67
-78 25z m56 -6 c14 -24 11 -28 -24 -35 -20 -3 -26 0 -26 14 0 18 18 42 32 42
4 0 12 -9 18 -21z"/>
<path d="M3090 4380 c-22 -22 -28 -97 -10 -131 21 -38 87 -14 77 28 -3 15 -6
13 -15 -9 -6 -16 -16 -28 -21 -28 -27 0 -43 68 -27 118 8 25 34 30 42 7 7 -16
24 -21 24 -6 0 5 -7 17 -16 25 -20 21 -30 20 -54 -4z"/>
<path d="M3206 4384 c-32 -32 -32 -118 -1 -144 21 -18 64 -4 70 23 22 102 -18
172 -69 121z m54 -23 c16 -30 12 -76 -8 -101 -17 -21 -19 -21 -35 -5 -30 30
-17 125 18 125 8 0 19 -9 25 -19z"/>
<path d="M3310 4318 c0 -45 4 -78 10 -78 6 0 10 28 10 64 0 44 5 67 15 76 26
22 42 -4 44 -72 1 -34 4 -64 7 -67 3 -3 4 31 2 74 l-3 80 -42 0 -43 1 0 -78z"/>
<path d="M3437 4394 c-4 -4 -7 -14 -7 -22 0 -13 3 -13 18 1 22 20 39 22 45 5
6 -18 -11 -48 -27 -48 -24 0 -49 -37 -42 -63 6 -27 31 -41 49 -30 7 4 40 6 75
4 40 -2 62 1 62 8 0 6 -14 11 -30 11 l-30 0 27 53 c48 91 49 87 -5 85 -36 -1
-40 -2 -14 -5 17 -2 32 -6 32 -8 0 -12 -65 -135 -72 -135 -4 0 -8 33 -10 73
l-3 72 -30 3 c-17 2 -34 0 -38 -4z m51 -106 c-2 -25 -8 -33 -23 -33 -26 0 -32
35 -9 52 28 20 36 16 32 -19z"/>
<path d="M2158 4368 c-2 -13 -1 -34 3 -48 5 -19 7 -14 8 23 1 50 -4 62 -11 25z"/>
<path d="M2793 4382 c-19 -12 -31 -54 -27 -96 4 -43 19 -66 44 -66 23 0 54 36
44 51 -5 9 -10 6 -15 -9 -16 -43 -59 -22 -59 29 0 16 7 19 40 19 45 0 52 18
24 58 -16 23 -31 27 -51 14z m45 -40 c3 -19 -1 -22 -27 -22 -33 0 -41 16 -19
38 18 18 43 10 46 -16z"/>
<path d="M2956 4368 c-23 -33 -21 -103 4 -128 11 -11 25 -20 30 -20 6 0 19 9
30 20 22 22 28 97 10 131 -14 26 -55 24 -74 -3z m61 -19 c15 -30 6 -98 -14
-106 -25 -10 -43 18 -43 66 0 70 32 92 57 40z"/>
<path d="M1959 4354 c11 -15 18 -30 16 -34 -3 -5 -1 -11 5 -15 17 -11 10 29
-9 53 -27 31 -37 28 -12 -4z"/>
<path d="M2186 4305 c-9 -26 -7 -32 5 -12 6 10 9 21 6 23 -2 3 -7 -2 -11 -11z"/>
<path d="M2206 4298 c-11 -35 -15 -81 -7 -73 10 12 25 85 16 85 -3 0 -7 -6 -9
-12z"/>
<path d="M2156 4265 c4 -8 8 -15 10 -15 2 0 4 7 4 15 0 8 -4 15 -10 15 -5 0
-7 -7 -4 -15z"/>
<path d="M2158 4102 c-2 -78 0 -138 5 -133 8 8 11 260 3 268 -3 3 -6 -58 -8
-135z"/>
<path d="M2182 4160 c0 -14 2 -19 5 -12 2 6 2 18 0 25 -3 6 -5 1 -5 -13z"/>
<path d="M1901 4140 c1 -25 34 -73 52 -76 9 -1 17 1 17 4 -1 15 -70 86 -69 72z"/>
<path d="M2640 4002 l0 -112 52 0 c28 0 48 3 44 8 -4 4 -24 7 -44 7 l-37 0 0
97 c0 53 -3 100 -7 104 -5 4 -8 -43 -8 -104z"/>
<path d="M2930 4094 c0 -8 5 -12 10 -9 6 3 10 10 10 16 0 5 -4 9 -10 9 -5 0
-10 -7 -10 -16z"/>
<path d="M2871 4085 c0 -12 -6 -26 -13 -33 -9 -9 -9 -12 0 -12 7 0 12 -26 14
-72 3 -64 5 -73 23 -76 19 -3 19 -2 3 11 -14 11 -18 29 -18 75 0 49 3 61 18
65 15 4 15 5 0 6 -10 1 -18 12 -21 29 -3 18 -5 20 -6 7z"/>
<path d="M2760 4042 c-45 -36 -32 -143 18 -150 32 -5 49 13 57 57 12 72 -32
128 -75 93z m50 -21 c22 -42 6 -121 -26 -121 -16 0 -34 39 -34 76 0 33 17 64
35 64 8 0 19 -9 25 -19z"/>
<path d="M2997 4042 c-24 -26 -23 -113 1 -135 24 -22 38 -21 62 3 39 39 18
150 -29 150 -10 0 -25 -8 -34 -18z m57 -18 c3 -9 6 -31 6 -49 0 -46 -9 -65
-31 -65 -33 0 -48 80 -22 123 8 13 41 7 47 -9z"/>
<path d="M3109 4055 c-5 0 -2 -148 4 -152 4 -2 7 25 7 60 0 68 15 95 45 83 11
-4 15 -22 15 -76 0 -40 4 -70 10 -70 16 0 13 135 -3 149 -7 6 -28 9 -45 8 -18
-1 -32 -2 -33 -2z"/>
<path d="M1980 4025 c0 -14 5 -25 10 -25 6 0 10 11 10 25 0 14 -4 25 -10 25
-5 0 -10 -11 -10 -25z"/>
<path d="M2930 3970 c0 -47 4 -79 9 -75 12 6 11 144 -1 151 -4 3 -8 -31 -8
-76z"/>
<path d="M1916 3895 c4 -8 10 -12 15 -9 11 6 2 24 -11 24 -5 0 -7 -7 -4 -15z"/>
<path d="M1961 3834 c0 -11 3 -14 6 -6 3 7 2 16 -1 19 -3 4 -6 -2 -5 -13z"/>
<path d="M3214 3767 c-9 -24 1 -177 11 -177 6 0 11 40 13 95 2 62 -1 95 -8 95
-6 0 -13 -6 -16 -13z"/>
<path d="M3385 3764 c-19 -19 -16 -43 7 -57 20 -13 48 6 48 34 0 28 -35 43
-55 23z m44 -28 c-1 -16 -2 -17 -6 -3 -2 9 -9 17 -14 17 -5 0 -9 4 -9 10 0 5
7 7 15 4 8 -4 14 -16 14 -28z m-19 -22 c0 -3 -7 -1 -15 6 -8 7 -15 17 -15 22
0 5 7 3 15 -6 8 -8 15 -18 15 -22z"/>
<path d="M3630 3771 c-12 -7 -14 -27 -12 -95 l3 -86 38 0 c47 0 81 33 88 87 4
32 1 44 -18 65 -26 29 -75 43 -99 29z m81 -48 c12 -31 4 -70 -18 -95 -32 -36
-43 -22 -43 52 0 68 1 70 25 70 19 0 28 -8 36 -27z"/>
<path d="M2038 3743 c5 -21 7 -23 10 -9 2 10 0 22 -6 28 -6 6 -7 0 -4 -19z"/>
<path d="M3517 3763 c-2 -5 -15 -43 -27 -86 -23 -79 -20 -110 7 -69 20 28 56
28 75 0 30 -44 36 -11 15 77 -19 75 -24 85 -43 85 -13 0 -25 -3 -27 -7z m35
-78 c4 -19 1 -25 -13 -25 -21 0 -22 4 -13 37 8 28 20 22 26 -12z"/>
<path d="M2640 3661 c0 -84 1 -91 20 -91 16 0 20 7 20 36 l0 35 35 -37 c27
-29 38 -35 47 -26 9 9 4 20 -22 47 l-34 35 30 32 c16 18 32 34 37 36 12 6 8
22 -7 22 -8 0 -29 -16 -47 -35 -19 -19 -36 -35 -39 -35 -3 0 -5 15 -5 32 0 23
-5 34 -17 36 -16 3 -18 -6 -18 -87z"/>
<path d="M3160 3715 c-7 -9 -19 -14 -27 -11 -21 8 -42 -35 -39 -79 2 -25 -3
-47 -12 -57 -33 -38 27 -61 97 -37 47 16 41 45 -11 61 -39 11 -41 12 -15 16
35 4 53 36 38 68 -6 13 -8 31 -5 39 8 20 -10 19 -26 0z m7 -69 c-8 -20 -36
-21 -43 -1 -4 8 0 22 7 31 11 13 14 13 27 0 8 -8 12 -22 9 -30z m13 -86 c0 -5
-8 -10 -17 -11 -10 0 -26 -2 -35 -4 -18 -3 -24 6 -11 18 10 11 63 8 63 -3z"/>
<path d="M3270 3694 c-36 -42 5 -123 54 -108 36 11 46 25 46 65 0 28 -5 41
-19 49 -29 15 -67 12 -81 -6z m68 -40 c3 -32 -19 -61 -38 -49 -11 7 -14 68 -3
79 16 16 38 -1 41 -30z"/>
<path d="M2796 3681 c-26 -29 -18 -82 15 -100 24 -13 29 -13 53 3 15 9 24 21
20 27 -4 6 -13 4 -25 -7 -10 -9 -25 -14 -34 -11 -27 11 -16 25 25 32 45 8 51
24 20 55 -25 25 -52 25 -74 1z m54 -15 c0 -14 -29 -31 -38 -21 -6 6 18 35 29
35 5 0 9 -6 9 -14z"/>
<path d="M2900 3640 c0 -47 3 -60 15 -60 11 0 15 11 15 40 0 38 13 54 23 28 3
-9 7 -7 12 5 4 9 4 24 1 33 -5 13 -9 14 -21 4 -10 -9 -15 -9 -15 -1 0 6 -7 11
-15 11 -12 0 -15 -13 -15 -60z"/>
<path d="M2992 3688 c-14 -14 -16 -38 -4 -38 5 0 17 9 27 20 14 16 20 17 27 8
12 -20 9 -28 -11 -28 -10 0 -29 -8 -42 -19 -33 -27 -12 -51 45 -49 l42 0 3 45
c1 25 -3 51 -10 59 -14 17 -61 18 -77 2z m48 -72 c0 -14 -29 -31 -38 -21 -6 6
18 35 29 35 5 0 9 -6 9 -14z"/>
<path d="M3418 3663 c-40 -6 -34 -23 7 -23 24 0 35 5 35 15 0 8 -3 14 -7 14
-5 -1 -20 -4 -35 -6z"/>
<path d="M1906 3587 c-5 -9 -5 -39 0 -65 8 -43 8 -45 12 -14 2 17 2 47 0 65
-3 25 -6 28 -12 14z"/>
<path d="M3206 3473 c-3 -3 -6 -28 -6 -55 0 -36 4 -48 15 -48 11 0 15 12 15
49 0 47 -9 68 -24 54z"/>
<path d="M3254 3455 c-31 -47 10 -110 56 -85 43 23 28 110 -20 110 -11 0 -27
-11 -36 -25z m54 -32 c-3 -43 -31 -54 -36 -15 -5 32 4 52 23 52 13 0 15 -9 13
-37z"/>
<path d="M3357 3473 c-11 -10 -8 -103 3 -103 6 0 10 15 11 33 l0 32 16 -32
c26 -51 43 -42 43 22 0 61 -19 77 -21 18 l-1 -38 -15 38 c-16 37 -23 43 -36
30z"/>
<path d="M2960 3415 c0 -54 0 -55 30 -55 17 0 30 5 30 10 0 6 -9 10 -20 10
-17 0 -20 7 -20 45 0 25 -4 45 -10 45 -5 0 -10 -25 -10 -55z"/>
<path d="M3029 3446 c-17 -36 -4 -74 27 -82 32 -8 57 14 57 50 0 55 -63 79
-84 32z m59 -20 c4 -35 -15 -61 -34 -45 -17 14 -17 20 -4 54 13 33 34 28 38
-9z"/>
<path d="M3120 3461 c0 -5 7 -11 15 -15 10 -3 15 -19 15 -46 0 -22 5 -40 10
-40 6 0 10 19 10 43 0 24 5 48 12 55 9 9 4 12 -25 12 -20 0 -37 -4 -37 -9z"/>
<path d="M1921 3343 c0 -57 4 -105 9 -108 10 -6 10 163 -1 190 -4 12 -8 -22
-8 -82z"/>
<path d="M2045 3410 c2 -27 15 -38 15 -12 0 11 -4 23 -8 26 -5 3 -8 -4 -7 -14z"/>
<path d="M2030 3332 c0 -18 12 -42 21 -42 14 0 10 26 -6 40 -9 8 -15 8 -15 2z"/>
<path d="M1970 3301 c0 -5 5 -13 10 -16 6 -3 10 -2 10 4 0 5 -4 13 -10 16 -5
3 -10 2 -10 -4z"/>
<path d="M3530 3226 c-6 -18 -18 -26 -42 -29 -28 -3 -27 -4 12 -6 39 -2 42 -3
21 -12 -15 -6 -21 -14 -17 -25 3 -9 6 -18 6 -20 0 -2 9 -4 21 -4 11 0 17 -4
14 -10 -9 -15 -23 -12 -46 11 -26 26 -39 16 -14 -11 22 -24 70 -27 79 -4 8 22
-1 34 -27 35 -15 0 -17 2 -7 6 8 3 21 12 27 21 18 22 27 8 25 -37 -2 -22 2
-42 8 -46 6 -4 10 12 10 44 0 30 4 51 11 51 6 0 -2 14 -18 30 -34 36 -51 38
-63 6z m40 -12 c0 -9 -5 -14 -12 -12 -18 6 -21 28 -4 28 9 0 16 -7 16 -16z"/>
<path d="M2035 3230 c3 -5 8 -10 11 -10 2 0 4 5 4 10 0 6 -5 10 -11 10 -5 0
-7 -4 -4 -10z"/>
<path d="M3180 3233 c0 -3 7 -14 16 -24 16 -17 8 -18 -166 -21 l-182 -3 -18
25 c-10 14 -22 22 -25 18 -4 -4 1 -15 11 -25 17 -17 16 -18 -17 -24 l-34 -6
35 -2 c34 -1 35 -2 11 -14 -14 -6 -26 -17 -28 -23 -5 -15 26 -46 38 -39 5 4 9
-1 9 -10 0 -9 5 -13 10 -10 6 3 10 19 10 36 0 19 5 29 15 29 17 0 20 -16 5
-25 -13 -8 -13 -25 0 -25 5 0 14 9 20 21 13 24 -4 53 -27 45 -7 -3 -13 -1 -13
4 0 6 23 10 50 10 38 0 50 -4 50 -15 0 -18 -12 -19 -28 -3 -7 7 -12 8 -12 4 0
-15 41 -76 51 -76 12 0 12 13 -1 26 -7 7 -6 19 2 37 19 39 28 33 28 -18 0 -25
5 -45 10 -45 6 0 10 20 10 44 0 47 14 66 33 46 9 -10 9 -14 -1 -17 -10 -4 -10
-8 -1 -19 18 -22 29 -16 29 16 0 29 1 30 51 30 36 0 49 -4 46 -12 -2 -7 -16
-13 -32 -13 -41 0 -56 -29 -28 -57 13 -12 26 -19 29 -15 4 4 -1 13 -11 21 -11
8 -16 19 -12 30 8 21 27 12 27 -12 1 -15 2 -15 15 2 14 19 15 18 15 -12 0 -18
5 -32 10 -32 6 0 10 23 10 51 0 67 23 62 31 -7 l6 -49 1 53 c1 28 7 52 12 52
6 0 10 5 10 11 0 5 -4 8 -9 4 -5 -3 -18 6 -29 20 -19 24 -32 32 -32 18z m-350
-108 c0 -8 -7 -15 -15 -15 -8 0 -15 7 -15 15 0 8 7 15 15 15 8 0 15 -7 15 -15z"/>
<path d="M3320 3190 c0 -5 5 -10 10 -10 6 0 10 -13 10 -28 0 -16 8 -34 20 -42
11 -8 20 -20 20 -27 0 -7 5 -13 10 -13 18 0 10 26 -15 50 -30 28 -33 60 -6 60
16 0 19 -5 15 -26 -3 -16 -1 -23 6 -19 5 3 10 14 10 24 0 9 5 22 12 29 9 9 0
12 -40 12 -29 0 -52 -4 -52 -10z"/>
<path d="M2161 3139 c0 -30 4 -72 9 -94 6 -28 7 -13 3 50 -6 101 -13 127 -12
44z"/>
<path d="M2030 3130 c0 -5 5 -10 10 -10 6 0 10 5 10 10 0 6 -4 10 -10 10 -5 0
-10 -4 -10 -10z"/>
<path d="M1920 3062 c0 -22 4 -43 9 -46 9 -6 6 72 -3 82 -3 3 -6 -13 -6 -36z"/>
<path d="M1932 2975 c0 -16 2 -22 5 -12 2 9 2 23 0 30 -3 6 -5 -1 -5 -18z"/>
<path d="M2181 2984 c0 -11 3 -14 6 -6 3 7 2 16 -1 19 -3 4 -6 -2 -5 -13z"/>
<path d="M2192 2930 c0 -14 2 -19 5 -12 2 6 2 18 0 25 -3 6 -5 1 -5 -13z"/>
<path d="M1924 2871 c3 -80 16 -91 16 -13 0 33 -4 63 -9 67 -6 3 -9 -20 -7
-54z"/>
<path d="M2050 2867 c0 -4 9 -16 20 -27 11 -11 20 -16 20 -12 0 5 -9 17 -20
27 -11 10 -20 15 -20 12z"/>
<path d="M2016 2810 c7 -8 14 -24 17 -35 4 -19 5 -19 6 1 0 12 -7 28 -16 35
-16 12 -17 12 -7 -1z"/>
<path d="M2160 2621 c0 -22 5 -43 10 -46 6 -4 8 -10 6 -13 -2 -4 2 -18 9 -32
14 -25 14 -25 11 10 -3 39 -24 120 -31 120 -3 0 -5 -18 -5 -39z"/>
<path d="M2165 2390 c2 -85 5 -227 7 -315 1 -129 3 -144 8 -80 4 54 8 74 14
62 4 -9 5 -33 2 -52 -9 -49 14 -232 31 -246 9 -9 13 -8 13 0 0 6 -4 11 -10 11
-5 0 -10 10 -10 23 0 20 5 22 40 22 39 0 52 -8 28 -18 -10 -4 -10 -6 0 -6 6
-1 12 -9 12 -18 0 -10 9 -31 20 -48 20 -31 26 -50 12 -41 -4 2 -9 -4 -9 -15
-1 -11 2 -17 7 -14 16 10 24 -38 51 -305 27 -270 9 -740 -36 -938 -27 -117
-76 -288 -94 -325 -16 -31 -16 -37 -4 -33 8 3 16 6 19 6 7 0 42 75 68 150 64
177 102 488 97 790 -4 211 -5 240 -12 240 -3 0 -4 35 -3 78 1 42 -2 82 -8 89
-5 7 -5 13 0 17 14 9 -2 72 -18 68 -11 -3 -11 0 0 12 8 11 9 16 1 16 -6 0 -11
5 -11 11 0 5 4 7 10 4 10 -6 8 22 -9 142 -6 41 -5 50 6 46 7 -3 13 1 13 8 0
16 -20 49 -20 34 0 -15 -20 18 -20 33 0 7 5 10 11 7 15 -10 4 59 -37 238 -19
81 -34 150 -34 153 0 3 -4 3 -9 0 -5 -3 -12 1 -15 10 -15 40 -15 0 0 -65 9
-40 14 -74 12 -77 -3 -2 -10 22 -17 53 -15 70 -67 273 -92 363 l-19 65 5 -155z
m22 -22 c-3 -7 -5 -2 -5 12 0 14 2 19 5 13 2 -7 2 -19 0 -25z m13 -248 c0 -22
-4 -40 -9 -40 -5 0 -7 15 -6 33 4 45 4 47 10 47 3 0 5 -18 5 -40z m27 -232
c-3 -7 -5 -2 -5 12 0 14 2 19 5 13 2 -7 2 -19 0 -25z m13 -38 c0 -5 -7 -10
-16 -10 -8 0 -12 5 -9 10 3 6 10 10 16 10 5 0 9 -4 9 -10z"/>
<path d="M2040 2371 c0 -6 5 -13 10 -16 6 -3 10 1 10 9 0 9 -4 16 -10 16 -5 0
-10 -4 -10 -9z"/>
<path d="M2080 2328 c0 -10 4 -18 9 -18 5 0 12 -8 14 -17 4 -14 5 -15 6 -2 0
8 -6 24 -14 35 -13 17 -14 17 -15 2z"/>
<path d="M2031 2284 c0 -11 3 -14 6 -6 3 7 2 16 -1 19 -3 4 -6 -2 -5 -13z"/>
<path d="M2060 2248 c1 -14 34 -58 44 -58 3 0 6 7 6 15 0 8 -4 15 -9 15 -5 0
-13 9 -16 20 -7 22 -25 27 -25 8z"/>
<path d="M2250 2240 c0 -5 5 -10 10 -10 6 0 10 5 10 10 0 6 -4 10 -10 10 -5 0
-10 -4 -10 -10z"/>
<path d="M3448 2213 c-2 -10 -1 -34 3 -53 l6 -35 2 33 c1 40 21 43 21 2 0 -16
5 -30 10 -30 6 0 10 14 10 30 0 17 5 30 10 30 6 0 10 4 10 9 0 4 -11 6 -25 3
-18 -3 -25 0 -25 12 0 22 -17 21 -22 -1z"/>
<path d="M2797 2209 c-26 -15 -20 -40 13 -52 17 -6 30 -17 30 -24 0 -16 -32
-17 -48 -1 -7 7 -12 8 -12 2 0 -14 21 -34 36 -34 15 0 44 27 44 41 0 6 -16 17
-36 25 -28 12 -34 18 -25 27 9 9 16 9 31 -1 11 -7 20 -8 20 -2 0 17 -34 29
-53 19z"/>
<path d="M3000 2206 c0 -8 -11 -17 -25 -20 -21 -5 -25 -12 -24 -44 1 -27 3
-31 6 -12 11 56 43 62 43 8 0 -46 7 -31 13 30 3 29 1 52 -4 52 -5 0 -9 -6 -9
-14z"/>
<path d="M3176 2204 c-4 -10 -13 -14 -26 -11 -39 10 -67 -46 -36 -72 11 -9 20
-10 35 -1 28 15 26 22 -4 14 -22 -5 -25 -3 -25 20 0 22 4 25 30 23 26 -2 30
-6 30 -29 0 -16 3 -28 8 -28 8 0 8 87 0 95 -3 3 -8 -2 -12 -11z"/>
<path d="M3369 2208 c-3 -31 3 -74 12 -82 15 -16 20 0 10 27 -6 16 -7 29 -1
32 11 7 2 35 -11 35 -5 0 -9 -6 -10 -12z"/>
<path d="M3528 2185 c-8 -19 -8 -28 2 -40 15 -18 46 -20 56 -4 4 7 0 9 -14 5
-11 -4 -23 -3 -26 3 -3 5 5 12 19 15 28 7 33 31 9 40 -26 10 -34 7 -46 -19z
m47 -6 c-3 -4 -12 -6 -20 -3 -8 4 -13 10 -10 15 3 4 12 6 20 3 8 -4 13 -10 10
-15z"/>
<path d="M3612 2198 c-16 -16 -15 -43 3 -58 17 -14 45 -7 45 12 0 9 -3 9 -11
1 -13 -13 -42 -6 -33 8 3 5 16 9 30 9 13 0 24 4 24 8 0 12 -22 32 -35 32 -6 0
-16 -5 -23 -12z m33 -8 c3 -5 -3 -10 -15 -10 -12 0 -18 5 -15 10 3 6 10 10 15
10 5 0 12 -4 15 -10z"/>
<path d="M3220 2185 c-15 -18 1 -20 18 -3 6 6 15 8 19 3 5 -4 3 -10 -3 -12
-51 -18 -54 -53 -5 -53 25 0 28 3 26 28 -4 51 -29 68 -55 37z m32 -47 c-6 -6
-15 -8 -19 -4 -4 4 -1 11 7 16 19 12 27 3 12 -12z"/>
<path d="M3290 2159 c0 -25 4 -38 10 -34 6 4 8 11 5 16 -10 14 5 49 20 49 9 0
15 -14 17 -37 3 -29 6 -34 12 -20 4 9 5 28 2 42 -5 20 -13 25 -36 25 -28 0
-30 -2 -30 -41z"/>
<path d="M3035 2180 c-5 -9 -1 -10 14 -5 11 3 21 2 21 -3 0 -5 -9 -12 -21 -15
-33 -9 -20 -42 17 -42 29 -1 30 1 24 35 -4 26 -11 36 -27 38 -11 2 -24 -2 -28
-8z m35 -38 c0 -13 -12 -22 -22 -16 -10 6 -1 24 13 24 5 0 9 -4 9 -8z"/>
<path d="M2670 2165 c-10 -12 -9 -16 5 -21 19 -8 40 9 31 25 -10 15 -21 14
-36 -4z"/>
<path d="M2873 2150 c2 -30 6 -35 30 -38 25 -3 27 -1 26 35 -1 36 -2 37 -8 8
-3 -17 -13 -30 -21 -30 -8 0 -18 13 -22 30 -6 29 -6 29 -5 -5z"/>
<path d="M3408 2163 c7 -3 16 -2 19 1 4 3 -2 6 -13 5 -11 0 -14 -3 -6 -6z"/>
<path d="M2090 2101 c0 -29 15 -33 18 -5 1 13 -3 24 -8 24 -6 0 -10 -9 -10
-19z"/>
<path d="M2010 2010 c0 -5 5 -10 11 -10 5 0 7 5 4 10 -3 6 -8 10 -11 10 -2 0
-4 -4 -4 -10z"/>
<path d="M3210 1950 c0 -27 4 -50 9 -50 4 0 9 23 10 50 0 28 -4 50 -9 50 -6 0
-10 -22 -10 -50z"/>
<path d="M3286 1983 c-5 -21 0 -72 8 -81 3 -3 7 8 7 24 1 16 3 39 4 52 3 26
-11 30 -19 5z"/>
<path d="M2806 1982 c-10 -16 -35 -96 -31 -100 2 -2 8 5 14 16 13 24 36 23 56
-4 20 -27 18 -4 -5 50 -20 47 -25 52 -34 38z m24 -43 c0 -5 -7 -9 -15 -9 -9 0
-12 6 -9 15 6 15 24 11 24 -6z"/>
<path d="M2873 1940 c0 -30 2 -43 4 -27 2 15 2 39 0 55 -2 15 -4 2 -4 -28z"/>
<path d="M3050 1938 c0 -52 15 -58 22 -9 5 37 28 39 28 2 0 -16 5 -33 11 -36
7 -5 9 6 7 31 -3 33 -6 39 -25 38 -13 0 -23 5 -23 13 0 7 -4 13 -10 13 -5 0
-10 -23 -10 -52z"/>
<path d="M3333 1973 c-8 -3 -12 -20 -12 -41 1 -28 3 -31 6 -12 3 14 10 31 15
38 13 15 8 21 -9 15z"/>
<path d="M3370 1966 c-20 -25 -9 -61 19 -61 13 0 26 7 29 15 4 12 2 13 -9 3
-18 -17 -29 -16 -29 2 0 9 9 15 25 15 27 0 32 9 13 28 -16 16 -33 15 -48 -2z
m40 -6 c0 -5 -7 -10 -15 -10 -8 0 -15 5 -15 10 0 6 7 10 15 10 8 0 15 -4 15
-10z"/>
<path d="M3447 1974 c-13 -13 -7 -62 8 -68 19 -7 45 3 45 17 0 8 -3 8 -11 0
-12 -12 -39 -7 -39 8 0 5 12 9 26 9 19 0 25 5 22 18 -3 17 -38 29 -51 16z m38
-14 c3 -5 -3 -10 -15 -10 -12 0 -18 5 -15 10 3 6 10 10 15 10 5 0 12 -4 15
-10z"/>
<path d="M2905 1946 c-27 -40 11 -84 44 -51 14 14 14 15 -9 13 -20 -2 -26 2
-28 21 -3 21 0 23 22 19 28 -6 36 6 10 16 -22 8 -22 9 -39 -18z"/>
<path d="M2981 1956 c-21 -25 -10 -61 18 -61 31 0 50 28 35 53 -15 23 -38 26
-53 8z m43 -40 c-4 -9 -14 -16 -23 -14 -20 4 -27 38 -9 49 18 11 40 -13 32
-35z"/>
<path d="M3137 1964 c-13 -13 -7 -51 9 -65 23 -19 49 1 49 37 0 24 -5 30 -25
32 -14 2 -29 0 -33 -4z m51 -27 c4 -20 -25 -34 -40 -19 -15 15 -1 44 19 40 10
-2 19 -11 21 -21z"/>
<path d="M2674 1945 c-9 -23 10 -40 25 -22 9 11 8 17 -4 27 -12 10 -16 9 -21
-5z"/>
<path d="M3248 1933 c7 -3 16 -2 19 1 4 3 -2 6 -13 5 -11 0 -14 -3 -6 -6z"/>
<path d="M2164 1854 c3 -26 7 -95 8 -153 l2 -106 6 140 c6 146 5 165 -12 165
-7 0 -8 -17 -4 -46z"/>
<path d="M1972 1860 c9 -26 13 -30 16 -16 2 10 -3 26 -12 35 -15 15 -16 13 -4
-19z"/>
<path d="M2255 1791 c-3 -5 -1 -12 5 -16 5 -3 10 1 10 9 0 18 -6 21 -15 7z"/>
<path d="M2016 1775 c4 -8 8 -15 10 -15 2 0 4 7 4 15 0 8 -4 15 -10 15 -5 0
-7 -7 -4 -15z"/>
<path d="M2052 1745 c0 -16 2 -22 5 -12 2 9 2 23 0 30 -3 6 -5 -1 -5 -18z"/>
<path d="M2261 1714 c0 -11 3 -14 6 -6 3 7 2 16 -1 19 -3 4 -6 -2 -5 -13z"/>
<path d="M2080 1503 c0 -6 7 -19 16 -27 8 -9 13 -20 9 -25 -3 -5 -1 -12 5 -16
18 -11 10 29 -10 55 -11 14 -20 20 -20 13z"/>
<path d="M2010 1471 c0 -5 5 -13 10 -16 6 -3 10 -2 10 4 0 5 -4 13 -10 16 -5
3 -10 2 -10 -4z"/>
<path d="M2050 1411 c0 -5 7 -14 15 -21 16 -14 18 -10 9 14 -6 17 -24 22 -24
7z"/>
<path d="M2097 1349 c4 -13 8 -18 11 -10 2 7 -1 18 -6 23 -8 8 -9 4 -5 -13z"/>
<path d="M2040 1213 c0 -15 18 -35 23 -27 3 5 -1 15 -9 22 -8 7 -14 9 -14 5z"/>
<path d="M2470 1110 c0 -5 5 -10 10 -10 6 0 10 5 10 10 0 6 -4 10 -10 10 -5 0
-10 -4 -10 -10z"/>
<path d="M2480 1071 c0 -6 4 -13 10 -16 6 -3 7 1 4 9 -7 18 -14 21 -14 7z"/>
<path d="M2480 1016 c0 -9 5 -16 10 -16 6 0 10 4 10 9 0 6 -4 13 -10 16 -5 3
-10 -1 -10 -9z"/>
<path d="M2487 963 c-4 -3 -7 -13 -7 -21 0 -12 3 -12 15 -2 8 7 15 16 15 21 0
11 -14 12 -23 2z"/>
<path d="M2494 886 c-6 -7 -14 -68 -17 -137 -7 -140 -33 -376 -47 -428 -10
-36 -6 -57 4 -24 7 21 26 112 28 131 1 6 5 12 10 12 4 0 8 18 8 40 0 22 4 40
9 40 13 0 18 89 6 94 -6 3 -5 8 3 13 9 7 10 22 2 63 -12 63 -12 95 -1 65 7
-17 9 -15 13 12 4 27 2 31 -10 21 -12 -10 -13 -4 -7 38 4 27 12 55 17 62 14
16 -4 15 -18 -2z"/>
<path d="M2030 880 c0 -5 5 -10 11 -10 5 0 7 5 4 10 -3 6 -8 10 -11 10 -2 0
-4 -4 -4 -10z"/>
<path d="M2061 845 c1 -19 18 -51 18 -35 0 8 -4 22 -9 30 -5 8 -9 11 -9 5z"/>
<path d="M2101 764 c0 -11 3 -14 6 -6 3 7 2 16 -1 19 -3 4 -6 -2 -5 -13z"/>
<path d="M2770 620 l-125 -5 0 -109 0 -109 85 2 c156 3 365 13 373 18 4 2 7
51 7 109 l0 104 -107 -2 c-60 -1 -164 -5 -233 -8z m157 -80 c7 -37 21 -39 25
-3 2 17 10 29 21 31 14 3 17 -5 17 -52 0 -62 -19 -89 -21 -29 l-2 38 -10 -37
c-13 -47 -24 -48 -36 -5 l-9 32 -1 -32 c-1 -18 -5 -33 -11 -33 -11 0 -14 103
-3 113 13 14 24 6 30 -23z m93 -15 c0 -41 2 -45 25 -45 14 0 25 -4 25 -9 0
-10 -51 -22 -62 -14 -12 7 -10 113 2 113 6 0 10 -20 10 -45z m-260 26 c0 -5
-10 -11 -22 -15 l-23 -6 25 -13 c23 -12 26 -11 33 15 8 28 39 39 52 18 12 -19
8 -82 -7 -96 -14 -14 -17 -14 -32 1 -15 15 -17 15 -32 0 -9 -9 -23 -14 -31
-11 -8 3 -17 6 -19 6 -2 0 -4 7 -4 15 0 18 16 20 23 3 4 -10 8 -10 16 2 12 18
4 33 -15 26 -18 -7 -26 8 -18 39 4 18 13 25 30 25 13 0 24 -4 24 -9z"/>
<path d="M2790 505 c0 -19 5 -35 10 -35 6 0 10 16 10 35 0 19 -4 35 -10 35 -5
0 -10 -16 -10 -35z"/>
<path d="M3081 393 c3 -20 -2 -27 -10 -14 -8 12 -13 12 -24 3 -15 -12 -198
-29 -300 -28 -31 1 -57 -3 -57 -8 0 -5 42 -6 98 -3 53 4 145 7 205 7 l107 0 0
25 c0 14 -4 25 -10 25 -5 0 -9 -3 -9 -7z"/>
<path d="M2913 384 c7 -8 118 -6 125 1 3 3 -25 5 -63 5 -38 0 -65 -3 -62 -6z"/>
<path d="M2650 360 c0 -11 7 -20 15 -20 8 0 15 6 15 14 0 8 6 17 13 19 6 3 0
6 -15 6 -22 1 -28 -4 -28 -19z"/>
<path d="M2718 368 c6 -6 18 -8 28 -6 14 3 12 5 -9 10 -19 3 -25 2 -19 -4z"/>
</g>
</svg>
