<?xml version="1.0" encoding="utf-8"?>
<!-- Generator: Adobe Illustrator 19.2.1, SVG Export Plug-In . SVG Version: 6.00 Build 0)  -->
<svg version="1.1" id="layer" xmlns="http://www.w3.org/2000/svg" xmlns:xlink="http://www.w3.org/1999/xlink" x="0px" y="0px"
	 viewBox="0 0 652 652" style="enable-background:new 0 0 652 652;" xml:space="preserve">
<style type="text/css">
	.st0{fill-rule:evenodd;clip-rule:evenodd;}
</style>
<g>
	<path class="st0" d="M445.3,344.2h-15.1l44.3-87h2.1h13h2.3l44.3,87h-15.3l-11.6-22.9h-52.3L445.3,344.2z M503.7,310.6l-20.7-40.6
		l-20.7,40.6H503.7z M376.2,254.9l10.3-11.9h22.9L376.2,254.9z M346.7,344.4h77.8v-9.9h-64.4v-30.1h47.8v-10.2h-47.8V267h64v-9.7
		h-77.4V344.4z M240.9,257.2H253h45.2c15.3,0,27.8,11.4,27.8,25.3c0,12.1-9.5,22.3-22.1,24.7l26.9,37.1h-15.8l-26.5-36.5H253v36.5
		h-12.1v-36.5V257.2z M298.9,267.6l0.8,0.1l0.8,0.1l0.8,0.2l0.8,0.2l0.7,0.3l0.7,0.3l0.7,0.3l0.7,0.4l0.7,0.4l0.6,0.4l0.6,0.5
		l0.6,0.5l0.5,0.5l0.5,0.5l0.5,0.6l0.5,0.6l0.4,0.6l0.4,0.6l0.4,0.6l0.3,0.6l0.3,0.6l0.3,0.6l0.2,0.6l0.2,0.6l0.2,0.6l0.1,0.7
		l0.1,0.7l0.1,0.7l0,0.7l0,0.7l0,0.7l0,0.7l-0.1,0.7l-0.1,0.7l-0.1,0.7l-0.2,0.7l-0.2,0.6l-0.2,0.6l-0.3,0.6l-0.3,0.6l-0.3,0.6
		l-0.4,0.6l-0.4,0.6l-0.4,0.6l-0.5,0.6l-0.5,0.6l-0.5,0.5l-0.5,0.5l-0.6,0.5l-0.6,0.5l-0.6,0.4l-0.7,0.4l-0.7,0.4l-0.7,0.3l-0.7,0.3
		l-0.7,0.3l-0.8,0.2l-0.8,0.2l-0.8,0.2l-0.8,0.1l-0.8,0.1l-0.9,0h-43.5v-30h43.5l1,0L298.9,267.6z M166.5,252.1
		c-24.6,0-44.5,19.9-44.5,44.5c0,24.6,19.9,44.5,44.5,44.5c24.6,0,44.5-19.9,44.5-44.5C211,272,191,252.1,166.5,252.1 M166.5,242.1
		c-32.7,0-59.3,24.4-59.3,54.5c0,30.1,26.5,54.5,59.3,54.5s59.3-24.4,59.3-54.5C225.7,266.5,199.2,242.1,166.5,242.1 M20.6,344.4
		v-87.1h11.1v77.6h65.8v9.5H20.6z M542.5,344.4h78.1v-9.9h-65.8v-77.2h-12.2V344.4z M262.3,401h-6.6l19.5-33.9h0.9h5.7h1l19.5,33.9
		h-6.7l-5.1-8.9h-23L262.3,401z M287.9,387.9l-9.1-15.8l-9.1,15.8H287.9z M314.8,367.1h5.1h19c6.4,0,11.7,4.4,11.7,9.8
		c0,4.7-4,8.7-9.3,9.6l11.3,14.4H346l-11.2-14.2h-13.7V401h-6.4v-14.2V367.1z M339.1,371.2l0.3,0l0.3,0.1l0.3,0.1l0.3,0.1l0.3,0.1
		l0.3,0.1l0.3,0.1l0.3,0.1l0.3,0.2l0.3,0.2l0.2,0.2l0.2,0.2l0.2,0.2l0.2,0.2l0.2,0.2l0.2,0.2l0.2,0.2l0.2,0.2l0.2,0.2l0.1,0.2
		l0.1,0.2l0.1,0.2l0.1,0.2l0.1,0.3l0.1,0.3l0,0.3l0,0.3l0,0.3l0,0.3v0.3v0.3l0,0.3l0,0.3l0,0.3l0,0.3l-0.1,0.3l-0.1,0.3l-0.1,0.2
		l-0.1,0.2l-0.1,0.2l-0.1,0.2l-0.2,0.2l-0.2,0.2l-0.2,0.2l-0.2,0.2l-0.2,0.2l-0.2,0.2l-0.2,0.2l-0.2,0.2l-0.2,0.2l-0.3,0.2l-0.3,0.2
		l-0.3,0.1l-0.3,0.1l-0.3,0.1l-0.3,0.1l-0.3,0.1l-0.3,0.1l-0.3,0.1l-0.3,0l-0.3,0l-0.4,0h-17v-11.7h17l0.4,0L339.1,371.2z
		 M217.3,367.1h5.1h19c6.4,0,11.7,4.4,11.7,9.8c0,3.4-2.1,6.4-5.2,8.2c-2.1,1.2-4.3,1.5-6.7,1.6c-1.2,0-2.5,0-3.8,0h-13.7V401h-6.4
		v-14.2V367.1z M241.6,371.2l0.3,0l0.3,0.1l0.3,0.1l0.3,0.1l0.3,0.1l0.3,0.1l0.3,0.1l0.3,0.1l0.3,0.2l0.3,0.2l0.3,0.2l0.2,0.2
		l0.2,0.2l0.2,0.2l0.2,0.2l0.2,0.2l0.2,0.2l0.2,0.2l0.1,0.2l0.1,0.2l0.1,0.2l0.1,0.2l0.1,0.2l0.1,0.3l0.1,0.3l0.1,0.3l0,0.3l0,0.3
		l0,0.3v0.3v0.3l0,0.3l0,0.3l0,0.3l-0.1,0.3l-0.1,0.3l-0.1,0.3l-0.1,0.2l-0.1,0.2l-0.1,0.2l-0.1,0.2l-0.1,0.2l-0.2,0.2l-0.2,0.2
		l-0.2,0.2l-0.2,0.2l-0.2,0.2l-0.2,0.2l-0.2,0.2l-0.3,0.2l-0.3,0.2l-0.3,0.2l-0.3,0.1l-0.3,0.1l-0.3,0.1l-0.3,0.1l-0.3,0.1l-0.3,0.1
		l-0.3,0.1l-0.3,0l-0.3,0l-0.4,0h-17v-11.7h17l0.4,0L241.6,371.2z M389,390.1l5.8-0.4c0.3,1.7,0.9,3.1,1.9,4.2c1,1.1,2.6,2,4.7,2.6
		c2.1,0.7,4.5,1,7.2,1c2.4,0,4.5-0.2,6.3-0.8c1.8-0.5,3.2-1.2,4-2.1c0.9-0.9,1.3-1.8,1.3-2.9c0-1.1-0.4-2-1.3-2.8
		c-0.8-0.8-2.3-1.5-4.2-2c-1.3-0.4-4-0.9-8.4-1.7c-4.3-0.7-7.3-1.4-9-2.1c-2.2-0.8-3.9-1.9-5-3.1c-1.1-1.3-1.6-2.7-1.6-4.2
		c0-1.7,0.7-3.3,2-4.8c1.3-1.5,3.3-2.6,5.9-3.4c2.6-0.8,5.5-1.1,8.6-1.1c3.5,0,6.5,0.4,9.2,1.2c2.7,0.8,4.7,2,6.1,3.6
		c1.4,1.6,2.2,3.4,2.3,5.3L419,377c-0.3-2.1-1.4-3.8-3.3-4.9c-1.8-1.1-4.6-1.6-8.2-1.6c-3.8,0-6.5,0.5-8.2,1.5
		c-1.7,1-2.6,2.2-2.6,3.6c0,1.2,0.6,2.2,1.8,3c1.2,0.8,4.3,1.6,9.4,2.4c5,0.8,8.5,1.6,10.4,2.2c2.7,0.9,4.7,2.1,6.1,3.4
		c1.3,1.4,1.9,3,1.9,4.8c0,1.8-0.7,3.5-2.1,5.1c-1.4,1.6-3.5,2.8-6.2,3.7c-2.7,0.9-5.7,1.3-9,1.3c-4.2,0-7.8-0.4-10.7-1.3
		c-2.9-0.9-5.1-2.2-6.8-4C390,394.4,389.1,392.4,389,390.1 M368.1,377.1h6.3V401h-6.3V377.1z M368.1,367.1h6.3v6.3h-6.3V367.1z
		 M74.9,287.8h10.3l15.4-29.9H87.5L74.9,287.8z"/>
</g>
</svg>
